<svg width="current" height="current" viewBox="0 0 24 24" fill="currentColor" xmlns="http://www.w3.org/2000/svg">
<path d="M8.47809 8.47802C8.66562 8.29055 8.91993 8.18523 9.18509 8.18523C9.45025 8.18523 9.70456 8.29055 9.89209 8.47802L12.0461 10.631L14.1991 8.47802C14.2913 8.38251 14.4017 8.30633 14.5237 8.25392C14.6457 8.20151 14.7769 8.17392 14.9097 8.17277C15.0425 8.17161 15.1741 8.19691 15.297 8.2472C15.4199 8.29748 15.5316 8.37173 15.6255 8.46562C15.7194 8.55952 15.7936 8.67117 15.8439 8.79406C15.8942 8.91696 15.9195 9.04864 15.9183 9.18142C15.9172 9.3142 15.8896 9.44542 15.8372 9.56742C15.7848 9.68943 15.7086 9.79977 15.6131 9.89202L13.4601 12.046L15.6131 14.199C15.7952 14.3876 15.896 14.6402 15.8938 14.9024C15.8915 15.1646 15.7863 15.4154 15.6009 15.6008C15.4155 15.7862 15.1647 15.8914 14.9025 15.8937C14.6403 15.896 14.3877 15.7952 14.1991 15.613L12.0461 13.46L9.89209 15.613C9.70276 15.7908 9.4517 15.888 9.19201 15.8839C8.93233 15.8799 8.6844 15.775 8.50068 15.5914C8.31697 15.4078 8.21189 15.16 8.20767 14.9003C8.20346 14.6406 8.30043 14.3895 8.47809 14.2L10.6311 12.047L8.47809 9.89302C8.29062 9.70549 8.1853 9.45118 8.1853 9.18602C8.1853 8.92085 8.29062 8.66655 8.47809 8.47902" fill="current"/>
<path fill-rule="evenodd" clip-rule="evenodd" d="M12 2C6.477 2 2 6.477 2 12C2 17.523 6.477 22 12 22C17.523 22 22 17.523 22 12C22 6.477 17.523 2 12 2ZM4 12C4 9.87827 4.84285 7.84344 6.34315 6.34315C7.84344 4.84285 9.87827 4 12 4C14.1217 4 16.1566 4.84285 17.6569 6.34315C19.1571 7.84344 20 9.87827 20 12C20 14.1217 19.1571 16.1566 17.6569 17.6569C16.1566 19.1571 14.1217 20 12 20C9.87827 20 7.84344 19.1571 6.34315 17.6569C4.84285 16.1566 4 14.1217 4 12Z" fill="current"/>
</svg>
