<svg width="24" height="24" viewBox="0 0 24 24" fill="none" xmlns="http://www.w3.org/2000/svg">
<path fill-rule="evenodd" clip-rule="evenodd" d="M12 2C10.8426 1.99976 9.70976 2.3343 8.73814 2.96329C7.76653 3.59229 6.99759 4.48888 6.524 5.545C6.45663 5.69641 6.38763 5.84708 6.317 5.997L6.297 5.998C6.233 6 6.146 6 6 6C4.93913 6 3.92172 6.42143 3.17157 7.17157C2.42143 7.92172 2 8.93913 2 10C2 11.0609 2.42143 12.0783 3.17157 12.8284C3.92172 13.5786 4.93913 14 6 14H6.172L8.172 12H6C5.46957 12 4.96086 11.7893 4.58579 11.4142C4.21071 11.0391 4 10.5304 4 10C4 9.46957 4.21071 8.96086 4.58579 8.58579C4.96086 8.21071 5.46957 8 6 8H6.064C6.272 8 6.514 8.001 6.714 7.96C6.96296 7.91742 7.20093 7.82563 7.414 7.69C7.655 7.534 7.821 7.34 7.947 7.163C8.0242 7.04899 8.09145 6.92854 8.148 6.803C8.20133 6.69167 8.26667 6.549 8.344 6.375L8.348 6.365C8.66342 5.66016 9.17607 5.06165 9.82408 4.6417C10.4721 4.22175 11.2278 3.99829 12 3.99829C12.7722 3.99829 13.5279 4.22175 14.1759 4.6417C14.8239 5.06165 15.3366 5.66016 15.652 6.365L15.657 6.375C15.7337 6.54833 15.7987 6.691 15.852 6.803C15.898 6.9 15.966 7.041 16.053 7.163C16.179 7.339 16.344 7.534 16.586 7.691C16.828 7.847 17.073 7.918 17.286 7.961C17.486 8.001 17.728 8.001 17.936 8.001L18 8C18.5304 8 19.0391 8.21071 19.4142 8.58579C19.7893 8.96086 20 9.46957 20 10C20 10.5304 19.7893 11.0391 19.4142 11.4142C19.0391 11.7893 18.5304 12 18 12H15.828L17.828 14H18C19.0609 14 20.0783 13.5786 20.8284 12.8284C21.5786 12.0783 22 11.0609 22 10C22 8.93913 21.5786 7.92172 20.8284 7.17157C20.0783 6.42143 19.0609 6 18 6C17.854 6 17.767 6 17.703 5.998H17.683L17.658 5.945C17.5961 5.81223 17.5354 5.67889 17.476 5.545C17.0024 4.48888 16.2335 3.59229 15.2619 2.96329C14.2902 2.3343 13.1574 1.99976 12 2Z" fill="#6B7280"/>
<path d="M12 12L11.293 11.293L12 10.586L12.707 11.293L12 12ZM13 21C13 21.2652 12.8946 21.5196 12.7071 21.7071C12.5195 21.8946 12.2652 22 12 22C11.7348 22 11.4804 21.8946 11.2929 21.7071C11.1053 21.5196 11 21.2652 11 21H13ZM7.29297 15.293L11.293 11.293L12.707 12.707L8.70697 16.707L7.29297 15.293ZM12.707 11.293L16.707 15.293L15.293 16.707L11.293 12.707L12.707 11.293ZM13 12V21H11V12H13Z" fill="#6B7280"/>
</svg>
