<svg width="24" height="24" viewBox="0 0 24 24" fill="none" xmlns="http://www.w3.org/2000/svg">
<path d="M6 22C5.45 22 4.97933 21.8043 4.588 21.413C4.19667 21.0217 4.00067 20.5507 4 20V4C4 3.45 4.196 2.97933 4.588 2.588C4.98 2.19667 5.45067 2.00067 6 2H13.175C13.4417 2 13.696 2.05 13.938 2.15C14.18 2.25 14.3923 2.39167 14.575 2.575L19.425 7.425C19.6083 7.60833 19.75 7.821 19.85 8.063C19.95 8.305 20 8.559 20 8.825V20C20 20.55 19.8043 21.021 19.413 21.413C19.0217 21.805 18.5507 22.0007 18 22H6ZM13 8V4H6V20H18V9H14C13.7167 9 13.4793 8.904 13.288 8.712C13.0967 8.52 13.0007 8.28267 13 8Z" fill="white"/>
</svg>
